<svg width="12" height="21" viewBox="0 0 12 21" fill="none" xmlns="http://www.w3.org/2000/svg">
<path d="M9.62818 20.4305C9.8865 20.6888 10.2153 20.8297 10.6027 20.8297C11.3777 20.8297 12 20.2192 12 19.4442C12 19.0568 11.8356 18.7045 11.5656 18.4344L3.34638 10.4031L11.5656 2.3953C11.8356 2.12524 12 1.76125 12 1.38552C12 0.610568 11.3777 0 10.6027 0C10.2153 0 9.8865 0.1409 9.62818 0.399217L0.493151 9.3229C0.164384 9.62818 0.0117417 10.0039 0 10.4149C0 10.8258 0.164384 11.1781 0.493151 11.4951L9.62818 20.4305Z" fill="#007AFF"/>
</svg>
